<svg version="1.1" id="Layer_1" xmlns="http://www.w3.org/2000/svg" xmlns:xlink="http://www.w3.org/1999/xlink" x="0px" y="0px"
	 width="100%" viewBox="0 0 658 532" enable-background="new 0 0 658 532" xml:space="preserve">
<path fill="#131313" opacity="1.000000" stroke="none" 
	d="
M413.000000,533.000000 
	C275.333344,533.000000 138.166672,533.000000 1.000000,533.000000 
	C1.000000,355.666656 1.000000,178.333328 1.000000,1.000000 
	C220.333328,1.000000 439.666656,1.000000 659.000000,1.000000 
	C659.000000,178.333328 659.000000,355.666656 659.000000,533.000000 
	C577.166687,533.000000 495.333344,533.000000 413.000000,533.000000 
M60.021511,133.664825 
	C59.516949,133.804901 59.012386,133.944992 58.507820,134.085068 
	C59.029701,134.392517 59.551582,134.699966 60.097721,135.761337 
	C59.822769,136.180511 59.547817,136.599670 58.671761,137.075287 
	C58.183563,137.739532 57.695362,138.403778 57.207161,139.068024 
	C58.096298,138.834824 58.985432,138.601639 60.826447,138.322311 
	C136.077911,138.340149 211.329376,138.353943 286.580841,138.391647 
	C289.391449,138.393066 292.201965,138.627243 295.057709,139.368896 
	C295.773315,139.920227 296.488892,140.471558 297.150818,141.730591 
	C210.712616,259.951263 124.274406,378.171936 37.284924,497.146606 
	C65.167763,497.146606 92.096596,497.146606 119.652313,497.679413 
	C119.976013,497.752594 120.299728,497.890015 120.623413,497.889923 
	C216.174744,497.866852 311.726074,497.839874 407.277344,497.741760 
	C408.551331,497.740448 409.824402,496.835754 411.797333,496.092865 
	C413.970917,494.496429 416.694214,493.308838 418.232849,491.240143 
	C433.175781,471.149078 447.956177,450.936615 462.712860,430.707672 
	C484.709717,400.553741 506.681519,370.381470 528.605225,340.174377 
	C550.616577,309.846649 572.565247,279.473450 594.519104,249.104095 
	C599.001038,242.904083 603.384338,236.632767 608.031921,230.086060 
	C605.819153,229.686615 604.379150,229.426651 603.243103,228.610352 
	C604.006165,225.547394 601.488586,227.082535 600.710632,227.080078 
	C571.079529,226.986633 541.448059,226.980606 511.816895,227.066849 
	C510.165314,227.071655 508.516296,227.961197 506.358643,228.867508 
	C503.671173,230.906281 500.321594,232.456985 498.401733,235.061569 
	C483.850189,254.803223 469.627930,274.787079 455.208710,294.626862 
	C432.707397,325.587036 410.179810,356.528503 387.547424,387.392853 
	C382.960205,393.648529 377.858093,399.526642 372.884460,404.699524 
	C370.999023,404.133453 369.114471,403.076599 367.227997,403.073029 
	C319.478149,402.982697 271.728119,403.006073 223.978119,402.991669 
	C222.110138,402.991089 220.242203,402.814606 218.374252,402.720093 
	C217.759125,401.838470 217.143997,400.956848 216.528870,400.075256 
	C218.228851,399.330200 220.007553,398.722900 221.610107,397.807343 
	C223.952545,396.469086 223.528885,394.715027 222.099319,392.291443 
	C233.683868,376.487701 245.289200,360.699158 256.849121,344.877380 
	C292.893524,295.544159 328.950165,246.219818 364.946014,196.851196 
	C397.902557,151.650970 430.793091,106.402565 463.693390,61.161354 
	C467.719666,55.624844 471.626770,50.001663 475.715057,44.241177 
	C474.532104,43.798378 474.225281,43.582230 473.919281,43.583340 
	C434.263489,43.726776 394.607788,43.994083 354.951965,44.021416 
	C281.131439,44.072300 207.310806,43.988365 133.490219,43.939613 
	C129.980164,43.937294 126.925102,43.936932 124.412498,47.448879 
	C107.705688,70.800529 90.801239,94.011475 73.852051,117.188454 
	C70.326820,122.008987 66.345177,126.495758 61.751884,131.170242 
	C61.502907,131.948959 61.253929,132.727676 60.877384,133.915604 
	C60.877384,133.915604 60.508488,134.133865 60.021511,133.664825 
M521.927979,139.579956 
	C535.921753,151.243332 551.585388,156.180435 569.939514,152.992508 
	C599.202026,147.909943 621.200195,117.656265 615.206848,87.495461 
	C608.183411,52.151646 568.507019,31.398026 535.965698,46.921272 
	C500.269409,63.949535 492.058197,110.719681 521.927979,139.579956 
M339.758850,499.003998 
	C283.570923,499.003998 227.382996,499.003998 171.195084,499.003998 
	C171.195877,499.246399 171.196671,499.488800 171.197464,499.731201 
	C228.094772,499.731201 284.992065,499.731201 343.254456,499.731201 
	C341.457703,499.251343 341.003357,499.130005 339.758850,499.003998 
M384.500000,499.007324 
	C374.786652,499.007324 365.073273,499.007324 355.359924,499.007324 
	C355.366150,499.242676 355.372375,499.478027 355.378601,499.713379 
	C374.197601,499.713379 393.016571,499.713379 411.835541,499.713379 
	C411.836029,499.478027 411.836548,499.242676 411.837036,499.007324 
	C403.058014,499.007324 394.279022,499.007324 384.500000,499.007324 
M133.434021,499.012360 
	C132.978149,499.140717 132.522278,499.269104 131.176239,499.648132 
	C141.281296,499.648132 150.467545,499.648132 159.653793,499.648132 
	C159.653290,499.434021 159.652771,499.219910 159.652267,499.005798 
	C151.181839,499.005798 142.711426,499.005798 133.434021,499.012360 
z"/>
<path fill="#FCFCFC" opacity="1.000000" stroke="none" 
	d="
M119.025421,497.146606 
	C92.096596,497.146606 65.167763,497.146606 37.284924,497.146606 
	C124.274406,378.171936 210.712616,259.951263 297.443390,141.226364 
	C297.995087,140.190384 298.254181,139.658630 298.513306,139.126877 
	C297.346375,139.002228 296.179443,138.877594 295.012512,138.752960 
	C292.201965,138.627243 289.391449,138.393066 286.580841,138.391647 
	C211.329376,138.353943 136.077911,138.340149 60.227493,137.995758 
	C59.509983,137.452393 59.391422,137.235611 59.272861,137.018845 
	C59.547817,136.599670 59.822769,136.180511 60.228916,135.286133 
	C60.422737,134.588104 60.472198,134.362427 60.508488,134.133865 
	C60.508488,134.133865 60.877384,133.915604 61.204918,133.566406 
	C61.879593,132.523590 62.226730,131.829971 62.573868,131.136353 
	C66.345177,126.495758 70.326820,122.008987 73.852051,117.188454 
	C90.801239,94.011475 107.705688,70.800529 124.412498,47.448879 
	C126.925102,43.936932 129.980164,43.937294 133.490219,43.939613 
	C207.310806,43.988365 281.131439,44.072300 354.951965,44.021416 
	C394.607788,43.994083 434.263489,43.726776 473.919281,43.583340 
	C474.225281,43.582230 474.532104,43.798378 475.715057,44.241177 
	C471.626770,50.001663 467.719666,55.624844 463.693390,61.161354 
	C430.793091,106.402565 397.902557,151.650970 364.946014,196.851196 
	C328.950165,246.219818 292.893524,295.544159 256.849121,344.877380 
	C245.289200,360.699158 233.683868,376.487701 221.730713,392.763947 
	C218.403564,397.318939 215.445007,401.401428 212.156021,405.939880 
	C214.259155,406.037140 215.567276,406.150360 216.875397,406.150391 
	C262.781647,406.151886 308.687897,406.163269 354.594086,406.110596 
	C360.727386,406.103546 366.860260,405.764282 372.993347,405.578857 
	C377.858093,399.526642 382.960205,393.648529 387.547424,387.392853 
	C410.179810,356.528503 432.707397,325.587036 455.208710,294.626862 
	C469.627930,274.787079 483.850189,254.803223 498.401733,235.061569 
	C500.321594,232.456985 503.671173,230.906281 507.009338,228.806274 
	C526.623047,228.836243 545.586060,228.931870 564.549072,229.017059 
	C577.345764,229.074554 590.142456,229.117340 602.939148,229.166702 
	C604.379150,229.426651 605.819153,229.686615 608.031921,230.086060 
	C603.384338,236.632767 599.001038,242.904083 594.519104,249.104095 
	C572.565247,279.473450 550.616577,309.846649 528.605225,340.174377 
	C506.681519,370.381470 484.709717,400.553741 462.712860,430.707672 
	C447.956177,450.936615 433.175781,471.149078 418.232849,491.240143 
	C416.694214,493.308838 413.970917,494.496429 410.993286,496.073853 
	C327.429871,496.179199 244.670456,496.272705 161.911224,496.457214 
	C147.615524,496.489075 133.320663,496.907013 119.025421,497.146606 
z"/>
<path fill="#FCFCFC" opacity="1.000000" stroke="none" 
	d="
M521.670837,139.330063 
	C492.058197,110.719681 500.269409,63.949535 535.965698,46.921272 
	C568.507019,31.398026 608.183411,52.151646 615.206848,87.495461 
	C621.200195,117.656265 599.202026,147.909943 569.939514,152.992508 
	C551.585388,156.180435 535.921753,151.243332 521.670837,139.330063 
z"/>
<path fill="#4B4B4B" opacity="1.000000" stroke="none" 
	d="
M119.338867,497.413025 
	C133.320663,496.907013 147.615524,496.489075 161.911224,496.457214 
	C244.670456,496.272705 327.429871,496.179199 410.643555,496.203796 
	C409.824402,496.835754 408.551331,497.740448 407.277344,497.741760 
	C311.726074,497.839874 216.174744,497.866852 120.623413,497.889923 
	C120.299728,497.890015 119.976013,497.752594 119.338867,497.413025 
z"/>
<path fill="#0B0B0B" opacity="1.000000" stroke="none" 
	d="
M372.938904,405.139191 
	C366.860260,405.764282 360.727386,406.103546 354.594086,406.110596 
	C308.687897,406.163269 262.781647,406.151886 216.875397,406.150391 
	C215.567276,406.150360 214.259155,406.037140 212.156021,405.939880 
	C215.445007,401.401428 218.403564,397.318939 221.675049,393.102661 
	C223.528885,394.715027 223.952545,396.469086 221.610107,397.807343 
	C220.007553,398.722900 218.228851,399.330200 216.528870,400.075256 
	C217.143997,400.956848 217.759125,401.838470 218.374252,402.720093 
	C220.242203,402.814606 222.110138,402.991089 223.978119,402.991669 
	C271.728119,403.006073 319.478149,402.982697 367.227997,403.073029 
	C369.114471,403.076599 370.999023,404.133453 372.938904,405.139191 
z"/>
<path fill="#050505" opacity="1.000000" stroke="none" 
	d="
M603.091125,228.888519 
	C590.142456,229.117340 577.345764,229.074554 564.549072,229.017059 
	C545.586060,228.931870 526.623047,228.836243 507.263092,228.591980 
	C508.516296,227.961197 510.165314,227.071655 511.816895,227.066849 
	C541.448059,226.980606 571.079529,226.986633 600.710632,227.080078 
	C601.488586,227.082535 604.006165,225.547394 603.091125,228.888519 
z"/>
<path fill="#1C1C1C" opacity="1.000000" stroke="none" 
	d="
M340.153931,499.006348 
	C341.003357,499.130005 341.457703,499.251343 343.254456,499.731201 
	C284.992065,499.731201 228.094772,499.731201 171.197464,499.731201 
	C171.196671,499.488800 171.195877,499.246399 171.195084,499.003998 
	C227.382996,499.003998 283.570923,499.003998 340.153931,499.006348 
z"/>
<path fill="#1E1E1E" opacity="1.000000" stroke="none" 
	d="
M385.000000,499.007324 
	C394.279022,499.007324 403.058014,499.007324 411.837036,499.007324 
	C411.836548,499.242676 411.836029,499.478027 411.835541,499.713379 
	C393.016571,499.713379 374.197601,499.713379 355.378601,499.713379 
	C355.372375,499.478027 355.366150,499.242676 355.359924,499.007324 
	C365.073273,499.007324 374.786652,499.007324 385.000000,499.007324 
z"/>
<path fill="#1C1C1C" opacity="1.000000" stroke="none" 
	d="
M133.837509,499.009094 
	C142.711426,499.005798 151.181839,499.005798 159.652267,499.005798 
	C159.652771,499.219910 159.653290,499.434021 159.653793,499.648132 
	C150.467545,499.648132 141.281296,499.648132 131.176239,499.648132 
	C132.522278,499.269104 132.978149,499.140717 133.837509,499.009094 
z"/>
<path fill="#060606" opacity="1.000000" stroke="none" 
	d="
M295.035095,139.060928 
	C296.179443,138.877594 297.346375,139.002228 298.513306,139.126877 
	C298.254181,139.658630 297.995087,140.190384 297.470215,140.872513 
	C296.488892,140.471558 295.773315,139.920227 295.035095,139.060928 
z"/>
<path fill="#060606" opacity="1.000000" stroke="none" 
	d="
M58.972313,137.047058 
	C59.391422,137.235611 59.509983,137.452393 59.751556,138.018814 
	C58.985432,138.601639 58.096298,138.834824 57.207161,139.068024 
	C57.695362,138.403778 58.183563,137.739532 58.972313,137.047058 
z"/>
<path fill="#060606" opacity="1.000000" stroke="none" 
	d="
M62.162876,131.153290 
	C62.226730,131.829971 61.879593,132.523590 61.268700,133.361816 
	C61.253929,132.727676 61.502907,131.948959 62.162876,131.153290 
z"/>
<path fill="#060606" opacity="1.000000" stroke="none" 
	d="
M60.264999,133.899353 
	C60.472198,134.362427 60.422737,134.588104 60.216785,134.909164 
	C59.551582,134.699966 59.029701,134.392517 58.507820,134.085083 
	C59.012386,133.944992 59.516949,133.804901 60.264999,133.899353 
z"/>
</svg>